<?xml version="1.0" standalone="no"?>
<!DOCTYPE svg PUBLIC "-//W3C//DTD SVG 20010904//EN"
 "http://www.w3.org/TR/2001/REC-SVG-20010904/DTD/svg10.dtd">
<svg version="1.0" xmlns="http://www.w3.org/2000/svg"
 width="930.000000pt" height="986.000000pt" viewBox="0 0 930.000000 986.000000"
 preserveAspectRatio="xMidYMid meet">

<g transform="translate(0.000000,986.000000) scale(0.100000,-0.100000)"
fill="#000000" stroke="none">
<path d="M4355 8205 c-535 -48 -1038 -222 -1461 -506 -309 -207 -591 -487
-794 -789 -360 -536 -518 -1206 -435 -1847 78 -612 347 -1157 790 -1598 487
-486 1126 -783 1850 -860 170 -19 540 -18 705 0 566 64 1082 263 1513 583 709
525 1127 1328 1131 2172 1 218 -7 330 -39 513 -75 436 -259 848 -545 1217 -89
115 -333 361 -450 454 -109 86 -289 208 -407 275 -535 304 -1211 444 -1858
386z m-990 -403 c-6 -5 -55 -40 -110 -77 -583 -402 -986 -932 -1169 -1538 -79
-262 -106 -440 -113 -747 -7 -320 14 -495 93 -778 171 -613 599 -1180 1201
-1589 62 -42 111 -78 109 -80 -5 -6 -98 33 -188 78 -702 353 -1234 1095 -1362
1899 -23 146 -28 203 -30 370 -12 728 256 1393 768 1906 212 211 414 359 691
505 109 58 128 67 110 51z m2943 -206 c515 -342 875 -808 1063 -1378 143 -432
172 -904 84 -1348 -49 -244 -160 -543 -283 -763 -210 -376 -547 -732 -889
-941 -135 -82 -348 -185 -359 -173 -2 2 47 38 109 80 377 255 709 599 925 958
188 311 298 622 354 994 18 122 18 598 -1 720 -122 825 -534 1467 -1269 1982
-59 41 -109 77 -112 80 -18 22 275 -142 378 -211z m-1446 -955 c393 -106 730
-442 861 -856 83 -264 75 -579 -23 -833 -161 -418 -515 -729 -920 -806 -394
-76 -880 213 -1114 664 -111 213 -152 395 -143 633 11 288 91 514 265 747 176
236 440 408 712 466 90 19 263 11 362 -15z m-969 -149 c-306 -237 -466 -523
-513 -912 -14 -116 -5 -402 15 -495 38 -179 97 -325 185 -456 51 -77 250 -276
338 -339 34 -25 58 -46 53 -48 -5 -2 -44 11 -86 29 -235 97 -476 331 -603 584
-43 87 -89 221 -107 317 -21 111 -21 319 0 433 61 326 260 628 537 816 61 42
244 139 261 139 5 0 -31 -31 -80 -68z m1540 17 c174 -88 304 -189 413 -321
146 -175 231 -350 280 -576 26 -116 23 -338 -6 -467 -56 -252 -170 -455 -359
-638 -134 -129 -318 -244 -423 -264 l-33 -6 40 28 c339 233 525 527 576 912
17 128 6 412 -20 535 -53 249 -150 440 -311 611 -66 71 -180 170 -250 219 -45
31 -11 19 93 -33z"/>
<path d="M1990 2015 l0 -275 41 0 40 0 -3 205 c-2 151 0 201 8 192 6 -7 35
-57 64 -112 29 -55 60 -113 70 -130 9 -16 34 -61 55 -98 l37 -69 63 111 c35
61 87 154 115 207 29 52 55 93 58 90 7 -7 9 -64 11 -248 l1 -148 40 0 41 0 -3
272 -3 272 -50 1 -50 0 -54 -100 c-128 -236 -164 -296 -171 -288 -4 4 -40 71
-80 148 -134 259 -124 245 -181 245 l-49 0 0 -275z"/>
<path d="M2898 2161 c-33 -69 -91 -191 -129 -270 -38 -79 -69 -146 -69 -148 0
-1 18 -3 40 -3 39 0 40 1 75 70 l35 70 148 0 147 0 32 -70 31 -70 46 0 45 0
-24 48 c-13 26 -71 146 -129 266 -59 121 -109 222 -111 224 -3 3 -21 6 -41 7
l-36 3 -60 -127z m158 -91 l53 -120 -116 0 c-88 0 -114 3 -110 13 24 59 111
236 115 232 3 -2 29 -59 58 -125z"/>
<path d="M3527 2279 c-96 -23 -193 -96 -228 -173 -45 -100 -10 -238 78 -300
133 -94 345 -98 486 -10 62 39 68 51 36 80 -16 15 -23 16 -37 6 -9 -7 -46 -27
-82 -45 -58 -29 -74 -32 -150 -32 -72 0 -92 4 -135 27 -60 31 -89 60 -110 110
-84 202 191 359 431 246 l46 -21 18 24 c22 29 19 35 -28 55 -97 42 -230 55
-325 33z"/>
<path d="M4169 2269 c-132 -47 -204 -169 -178 -302 21 -112 85 -189 188 -228
47 -18 71 -20 151 -16 l95 4 51 -44 52 -44 21 30 21 29 -41 37 -40 36 47 42
c150 132 114 368 -68 447 -76 33 -221 38 -299 9z m249 -65 c134 -65 165 -250
57 -354 l-34 -33 -44 17 c-55 21 -105 23 -137 6 -25 -14 -24 -14 19 -22 25 -4
52 -14 60 -23 14 -13 11 -15 -29 -15 -25 0 -65 10 -90 21 -147 67 -192 233
-93 348 76 89 180 109 291 55z"/>
<path d="M4695 2282 c-2 -2 -4 -95 -5 -207 -1 -228 5 -255 61 -298 85 -64 306
-70 406 -12 70 42 73 54 73 304 l0 219 -35 -1 -35 -2 -2 -207 c-3 -190 -5
-209 -23 -234 -31 -41 -85 -56 -190 -52 -101 5 -150 24 -165 64 -6 14 -10 117
-10 229 l0 204 -36 -2 c-20 -1 -37 -4 -39 -5z"/>
<path d="M5514 2278 c-21 -34 -254 -523 -254 -533 0 -3 18 -5 39 -5 40 0 40 1
72 70 l33 70 148 0 148 0 35 -70 c35 -69 36 -70 75 -70 22 0 40 2 40 5 0 5
-250 528 -254 533 -10 9 -76 10 -82 0z m99 -205 l56 -123 -115 0 c-63 0 -114
2 -114 4 0 2 14 35 31 73 17 37 42 92 55 122 13 30 26 52 28 50 2 -2 29 -59
59 -126z"/>
<path d="M5936 2281 c-3 -4 -4 -126 -3 -272 l2 -264 38 -3 37 -3 0 120 0 121
118 0 117 -1 80 -119 80 -120 48 0 c36 0 46 3 41 13 -5 6 -41 58 -81 114 -40
55 -73 103 -73 106 0 3 17 11 38 18 80 26 115 71 114 146 -2 59 -25 99 -75
125 -40 22 -55 23 -259 25 -120 1 -220 -2 -222 -6z m445 -89 c24 -22 32 -37
31 -61 -2 -74 -50 -91 -254 -91 l-148 0 0 90 0 90 170 0 170 0 31 -28z"/>
<path d="M6615 2281 c-2 -2 -4 -124 -5 -272 l-1 -269 41 0 40 0 0 273 0 274
-36 -1 c-20 -1 -37 -3 -39 -5z"/>
<path d="M6800 2015 l0 -275 245 0 245 0 0 35 0 35 -205 0 -205 0 0 85 0 85
140 0 140 0 0 40 0 40 -140 0 -140 0 0 75 0 75 205 0 205 0 0 40 0 40 -245 0
-245 0 0 -275z"/>
</g>
</svg>
